<svg xmlns="http://www.w3.org/2000/svg" viewBox="0 0 24 24" fill="#ffffff" aria-hidden="true"><path d="M22.28 9.82a5.98 5.98 0 0 0-.52-4.91 6.05 6.05 0 0 0-6.51-2.9A6.07 6.07 0 0 0 4.98 4.18a5.98 5.98 0 0 0-4 2.9 6.05 6.05 0 0 0 .75 7.1 5.98 5.98 0 0 0 .51 4.91 6.05 6.05 0 0 0 6.52 2.9A5.98 5.98 0 0 0 13.26 24a6.06 6.06 0 0 0 5.77-4.3 5.99 5.99 0 0 0 4-2.9 6.06 6.06 0 0 0-.75-7.1zM13.26 22.43a4.48 4.48 0 0 1-2.88-1.04l.14-.1 4.78-2.76a.38.38 0 0 0 .19-.33v-6.73l2.02 1.17a.08.08 0 0 1 .05.06v5.58a4.5 4.5 0 0 1-4.16 4.47zM5.47 17.42a4.47 4.47 0 0 1-.54-3.01l4.79 2.76a.38.38 0 0 0 .38 0l5.85-3.37v2.33a.09.09 0 0 1-.03.07l-4.83 2.79a4.5 4.5 0 0 1-6.62-1.57zm13.46-3.86a.38.38 0 0 0-.2-.33l-5.83-3.4V5.67a.09.09 0 0 1 .13-.07l4.82 2.79a4.49 4.49 0 0 1-.2 8.34zm2.02-1.28l-2.02-1.17V4.38a.38.38 0 0 0-.6-.31l-4.83 2.79.13.07a4.49 4.49 0 0 1 7.32 2.57v2.78zM6.99 9.27 2.22 6.5a.09.09 0 0 1-.05-.06V5.86a4.5 4.5 0 0 1 7.39-3.46l-.14.09-4.78 2.76a.38.38 0 0 0-.19.33v3.75zm1.12-3.06V2.88l2.93 1.7a.38.38 0 0 0 .38 0l2.92-1.7v3.33a.38.38 0 0 1-.19.33l-2.9 1.68a.38.38 0 0 1-.39 0l-2.9-1.68a.38.38 0 0 1-.19-.33z"/></svg>
